<?xml version="1.0" encoding="UTF-8" standalone="no"?>
<svg
   xmlns:svg="http://www.w3.org/2000/svg"
   xmlns="http://www.w3.org/2000/svg"
   version="1.1"
   width="205"
   height="72"
   fill="#b60307"
   id="svg2">
  <path
     d="m 88.245,31.5398 c -1.91,1.363 -2.797,3.066 -2.797,5.179 0,1.636 0.409,2.93 1.228,4.021 0.818,1.022 2.183,1.908 4.093,2.521 0.819,0.273 1.706,0.546 2.661,0.682 l 2.797,0.613 c 0.887,0.273 1.569,0.545 2.046,0.954 0.478,0.477 0.751,1.023 0.751,1.636 0,0.613 -0.205,1.158 -0.546,1.499 -0.341,0.341 -0.75,0.614 -1.228,0.818 -0.409,0.136 -0.955,0.273 -1.569,0.341 l -1.433,0.068 c -1.501,0 -3.001,-0.273 -4.571,-0.818 -1.5,-0.545 -2.933,-1.295 -4.161,-2.317 h -0.205 v 5.179 c 1.16,0.477 2.456,0.886 3.752,1.227 1.433,0.341 3.139,0.477 5.049,0.477 3.275,0 5.867,-0.681 7.778,-2.112 1.84,-1.432 2.8,-3.204 2.8,-5.452 0,-1.568 -0.41,-2.863 -1.23,-3.885 -0.75,-0.954 -2.05,-1.772 -3.754,-2.317 -0.887,-0.273 -1.774,-0.545 -2.524,-0.682 l -2.456,-0.545 c -1.365,-0.272 -2.251,-0.613 -2.797,-0.954 -0.546,-0.409 -0.819,-1.022 -0.819,-1.772 0,-0.477 0.205,-0.954 0.546,-1.363 0.273,-0.34 0.682,-0.613 1.16,-0.818 0.477,-0.204 0.955,-0.34 1.501,-0.408 0.477,-0.069 1.023,-0.137 1.5,-0.137 1.433,0 2.934,0.273 4.303,0.818 1.29,0.545 2.45,1.227 3.41,1.976 h 0.2 v -4.975 c -1.02,-0.408 -2.25,-0.749 -3.61,-1.022 -1.506,-0.341 -3.006,-0.477 -4.507,-0.477 -3.002,0 -5.458,0.682 -7.368,2.045 z"
     id="path4" />
  <path
     d="m 109.56,28.4948 v 3.273 h 5.13 v -3.273 z m 0.14,7.364 v 17.386 h 4.78 v -17.386 z"
     id="path6" />
  <path
     d="m 121.31,28.8698 v 24.375 h 5 v -24.375 z"
     id="path8" />
  <path
     d="m 132.94,28.4948 v 3.273 h 5.12 v -3.273 z m 0.2,7.364 v 17.386 h 4.78 v -17.386 z"
     id="path10" />
  <path
     d="m 149.68,35.9148 v 0 c -1.22,0.34 -2.31,0.884 -3.19,1.633 -0.95,0.749 -1.7,1.701 -2.24,2.858 -0.54,1.225 -0.81,2.654 -0.81,4.22 0,1.565 0.27,2.926 0.74,4.083 0.55,1.157 1.22,2.11 2.11,2.858 0.88,0.749 1.96,1.293 3.18,1.634 1.23,0.408 2.65,0.544 4.14,0.544 1.16,0 2.17,-0.136 3.12,-0.34 0.89,-0.204 1.77,-0.545 2.58,-0.953 v -4.355 h -0.41 c -0.13,0.136 -0.61,0.612 -0.61,0.612 -0.34,0.272 -0.61,0.476 -1.01,0.749 -0.41,0.204 -0.89,0.408 -1.5,0.612 -0.61,0.136 -1.29,0.204 -2.03,0.204 -1.63,0 -2.85,-0.476 -3.73,-1.429 -0.89,-0.953 -1.36,-2.382 -1.36,-4.219 0,-1.702 0.41,-3.131 1.29,-4.152 0.88,-1.089 2.1,-1.633 3.73,-1.633 0.68,0 1.36,0.068 1.9,0.272 0.47,0.136 1.02,0.341 1.42,0.613 0.48,0.272 0.89,0.476 1.23,0.748 0,0 0.47,0.477 0.67,0.613 h 0.41 v -4.356 c -0.81,-0.408 -1.69,-0.68 -2.64,-0.952 -0.95,-0.273 -2.04,-0.409 -3.26,-0.409 -1.29,0 -2.58,0.204 -3.73,0.545 z"
     id="path12" />
  <path
     d="m 166.02,37.8278 c -1.64,1.638 -2.46,3.891 -2.46,6.758 0,2.867 0.82,5.188 2.46,6.827 1.63,1.638 3.95,2.457 6.88,2.457 3,0 5.32,-0.819 6.96,-2.457 1.63,-1.639 2.45,-3.96 2.45,-6.827 0,-2.867 -0.82,-5.12 -2.45,-6.758 -1.64,-1.639 -3.96,-2.458 -6.96,-2.458 -2.93,0 -5.25,0.819 -6.88,2.458 z m 3.88,11.332 c -0.34,-0.478 -0.68,-1.092 -0.82,-1.843 -0.2,-0.751 -0.27,-1.639 -0.27,-2.663 0,-1.16 0.07,-2.116 0.27,-2.867 0.21,-0.751 0.55,-1.365 0.89,-1.843 0.48,-0.478 0.89,-0.819 1.36,-1.024 0.48,-0.137 1.03,-0.205 1.57,-0.205 0.62,0 1.16,0.068 1.64,0.273 0.54,0.205 1.02,0.546 1.36,1.024 0.41,0.478 0.68,1.092 0.89,1.843 0.2,0.751 0.27,1.707 0.27,2.799 0,1.161 -0.07,2.117 -0.27,2.799 -0.21,0.683 -0.48,1.297 -0.89,1.775 -0.34,0.478 -0.82,0.819 -1.36,1.024 -0.48,0.205 -1.02,0.273 -1.57,0.273 -0.61,0 -1.23,-0.136 -1.7,-0.341 -0.55,-0.205 -1.03,-0.546 -1.37,-1.024 z"
     id="path14" />
  <path
     d="m 196.08,35.9818 c -0.89,0.408 -1.84,1.019 -2.86,1.835 l -0.55,0.408 v -2.311 h -5.11 v 17.331 h 5.11 v -12.641 l 0.21,-0.068 c 0.61,-0.408 1.22,-0.68 1.77,-0.884 0.54,-0.136 1.16,-0.272 1.7,-0.272 0.75,0 1.36,0.136 1.84,0.34 0.48,0.204 0.82,0.544 1.09,1.019 0.21,0.34 0.34,0.952 0.41,1.7 0.07,0.747 0.07,1.495 0.07,2.175 v 8.631 h 5.18 v -11.418 c 0,-2.107 -0.55,-3.806 -1.57,-4.826 -1.02,-1.087 -2.45,-1.631 -4.29,-1.631 -1.09,0 -2.12,0.204 -3,0.612 z"
     id="path16" />
  <path
     d="m 78.686,39.4358 c 0,-21.705 -17.593,-39.316 -39.278,-39.316 -21.753,0 -39.346749,17.611 -39.346749,39.316 0,13.515 6.887349,25.4604 17.252749,32.5592 44.12,0 44.12,0 44.12,0 10.433,-7.0988 17.252,-19.0442 17.252,-32.5592 z"
     fill="#b91219"
     id="path18" />
  <path
     d="M 50.311,46.0798 H 37.766 c 0.136,1.363 0.613,2.385 1.568,3.134 0.886,0.682 2.318,1.09 4.091,1.09 1.159,0 2.318,-0.204 3.409,-0.681 1.023,-0.409 1.909,-0.818 2.523,-1.295 h 0.613 v 4.361 c -1.227,0.477 -2.386,0.886 -3.477,1.09 -1.091,0.205 -2.318,0.341 -3.614,0.341 -3.409,0 -6,-0.749 -7.84,-2.317 -1.773,-1.567 -2.728,-3.747 -2.728,-6.609 0,-2.794 0.887,-5.042 2.591,-6.678 1.705,-1.635 4.091,-2.521 7.091,-2.521 2.727,0 4.841,0.75 6.205,2.112 1.431,1.431 2.113,3.476 2.113,6.065 z m -5.454,-3.203 c -0.068,-1.09 -0.341,-1.976 -0.887,-2.521 -0.477,-0.613 -1.363,-0.886 -2.454,-0.886 -1.091,0 -1.909,0.273 -2.591,0.818 -0.682,0.545 -1.091,1.431 -1.159,2.589 z"
     fill="#fbf9fa"
     id="path20" />
  <path
     d="m 65.061,41.7698 h -0.478 c -0.274,-0.069 -0.616,-0.137 -1.163,-0.206 -0.478,0 -0.957,-0.068 -1.299,-0.068 -0.752,0 -1.435,0.068 -2.051,0.205 -0.615,0.069 -1.23,0.274 -1.914,0.48 v 11.439 h -5.47 v -17.125 h 5.47 v 2.535 c 1.231,-1.028 2.256,-1.713 3.145,-2.055 0.889,-0.343 1.709,-0.48 2.461,-0.48 h 0.684 c 0.205,0 0.41,0 0.615,0.069 z"
     fill="#fbf9fa"
     id="path22" />
  <path
     d="m 72.311,33.8698 h -5.75 v -3.875 h 5.75 z m -0.125,19.75 h -5.5 v -17.125 h 5.5 z"
     fill="#fbf9fa"
     id="path24" />
  <path
     d="M 6.5948,28.0328 20.01,57.4948 h 1.771 l 21.042,-40.92 c 0,0 0.613,-1.705 -2.996,-1.705 -2.111,0 -2.588,0.955 -2.588,0.955 l -16.82,28.098 -7.082,-15.89 c 0,0 -0.886,-2.046 -4.1544,-2.046 -2.9963,0 -2.5878,2.046 -2.5878,2.046 z"
     fill="#ffffff"
     id="path26" />
</svg>
